<svg width="56" height="56" viewBox="0 0 56 56" fill="none" xmlns="http://www.w3.org/2000/svg">
<g id="dashicons:privacy">
<path id="Vector" d="M28.0004 26.8801C26.3204 26.8801 25.2004 28.0001 25.2004 29.6801C25.2004 30.8001 26.0404 31.6401 26.8804 31.9201L26.0404 35.8401H29.6804L28.8404 31.9201C29.9604 31.6401 30.5204 30.8001 30.5204 29.6801C30.8004 28.0001 29.6804 26.8801 28.0004 26.8801ZM28.2804 14.8401C26.3204 14.8401 24.3604 16.2401 24.3604 18.2001V22.4001H31.9204V18.2001C31.6404 16.2401 30.2404 14.8401 28.2804 14.8401ZM28.0004 5.6001L8.40039 14.0001V22.4001C8.68039 34.7201 16.5204 45.6401 28.0004 50.1201C39.4804 45.6401 47.3204 34.7201 47.6004 22.4001V14.0001L28.0004 5.6001ZM39.2004 36.4001C39.2004 38.0801 38.0804 39.2001 36.4004 39.2001H19.6004C17.9204 39.2001 16.8004 38.0801 16.8004 36.4001V25.2001C16.8004 23.5201 17.9204 22.4001 19.6004 22.4001H20.4404V18.2001C20.7204 14.2801 24.0804 11.2001 28.0004 11.2001C31.9204 11.2001 35.2804 14.2801 35.5604 18.2001V22.4001H36.4004C38.0804 22.4001 39.2004 23.5201 39.2004 25.2001V36.4001Z" fill="#0F0F10"/>
</g>
</svg>
